<?xml version="1.0" encoding="utf-8"?>
<!-- Generator: Adobe Illustrator 22.0.0, SVG Export Plug-In . SVG Version: 6.00 Build 0)  -->
<svg version="1.1" id="Layer_1" xmlns="http://www.w3.org/2000/svg" xmlns:xlink="http://www.w3.org/1999/xlink" x="0px" y="0px"
	 viewBox="0 0 150 130" style="enable-background:new 0 0 150 130;" xml:space="preserve">
<style type="text/css">
	.st0{fill:#FFFFFF;}
</style>
<g>
	<path class="st0" d="M131.2,81.8H30.5c-1.2,0-2.2-1-2.2-2.2c0-1.2,1-2.2,2.2-2.2h100.7c1.2,0,2.2,1,2.2,2.2
		C133.4,80.8,132.4,81.8,131.2,81.8"/>
	<path class="st0" d="M131.2,90.2H30.5c-1.2,0-2.2-1-2.2-2.2c0-1.2,1-2.2,2.2-2.2h100.7c1.2,0,2.2,1,2.2,2.2
		C133.4,89.2,132.4,90.2,131.2,90.2"/>
	<polygon class="st0" points="114.7,87.7 114.7,102.7 121.1,99 127.5,102.7 127.5,87.7 	"/>
	<rect x="118.8" y="40.5" class="st0" width="16.8" height="9.3"/>
	<path class="st0" d="M144.7,52.2c-0.1-0.1-0.2-0.1-0.3-0.2c-1.9-1.7-3.6-3.7-4.8-5.9c0,0,0,0,0-0.1h0c-1.4-2.5-2.4-5.3-2.8-8.2
		c0-0.2,0-0.4-0.1-0.5c0,0,0,0,0,0c-0.2-1-0.6-2-1.2-2.8c-0.1-0.1-0.1-0.1-0.2-0.2C130,28.3,123,24,115,22c0-0.4,0-0.8,0-1.2
		c0-4.4,1.1-8.6,3.1-12.2c0.1-0.2,0.2-0.4,0.2-0.7c0-0.8-0.6-1.4-1.4-1.4c0,0-0.1,0-0.1,0c-0.1,0-0.2,0-0.2,0
		c-10,1.7-19.1,6.2-26.4,12.7c-3.1,2.7-5.8,5.8-8.1,9.2c-1,1.4-1.9,2.9-2.7,4.4c-0.5-0.3-1-0.5-1.5-0.8c-1.6-0.8-3.3-1.5-5-2.1
		c-5.2-1.9-10.8-2.9-16.6-2.9c-1.5,0-3.1,0.1-4.5,0.2c-5.6,0.5-11,2-15.9,4.2c-15.9,7.3-27.3,22.8-28.7,41c-0.1,1.3-0.2,2.5-0.2,3.8
		v12.4c0,2.1,0.3,4.2,0.9,6.1c1.6,5.3,5.2,9.7,9.9,12.3c2.9,1.6,6.2,2.6,9.8,2.7h31.4c0.2,0,0.3,0,0.5,0c0.2,0,0.3,0,0.5,0
		c0,0,0.1,0,0.2,0c0.1,0,0.2,0,0.2,0c1.9,0.2,3.6,1.2,4.8,2.6c0.2,0.2,0.4,0.5,0.5,0.7c0.6,0.9,1,1.9,1.1,3c0,0.1,0,0.1,0,0.2
		c0,0.2,0.1,0.5,0.1,0.7c0,0.1,0,0.1,0,0.2c0,0.1,0,0.1,0,0.1v0c0,0.9,0.2,1.8,0.5,2.6c0.6,1.5,1.6,2.7,3,3.5
		c1.1,0.7,2.5,1.1,3.9,1.1c3.6,0,6.6-2.6,7.3-6c0.1-0.3,0.1-0.6,0.1-0.9c0-0.1,0-0.2,0-0.3c0-0.1,0-0.2,0-0.2v-0.2
		c0-2.5-0.4-5-1.2-7.2c-1.1-3.3-3-6.2-5.4-8.6c-2.6-2.6-5.8-4.5-9.4-5.5c-2-0.6-4.1-0.9-6.2-0.9H33c-0.1,0-0.1,0-0.2,0
		c-0.1,0-0.1,0-0.2,0c-5.8-0.1-10.6-4.7-10.9-10.4c0-0.3,0-0.5,0-0.8c0-6.2,5-11.2,11.2-11.2h99.8c2.6,0,4.8-1.7,5.5-4
		c0-0.1,0.1-0.2,0.1-0.3c0.3-1.1,1-2.1,1.9-2.8c0,0,0,0,0,0c0.1-0.1,0.1-0.1,0.2-0.2c0.1-0.1,0.2-0.1,0.3-0.2
		c2.5-1.8,4.2-4.7,4.5-7.9c0.1-0.4,0.1-0.8,0.1-1.3C145.3,54.6,145.1,53.4,144.7,52.2 M131.4,47.7c-0.2,0-0.5-0.1-0.7-0.2
		c-1-0.6-2.1-0.9-3.3-1c-0.2,0-0.4,0-0.6,0c-0.5,0-1,0-1.5,0.2c-0.8,0.2-1.6,0.4-2.3,0.8c0,0,0,0,0,0c0,0-0.1,0-0.1,0.1
		c-0.2,0.1-0.4,0.1-0.6,0.1c-0.8,0-1.4-0.6-1.4-1.4c0-0.5,0.2-0.9,0.6-1.2c0,0,0.1-0.1,0.1-0.1c0.9-0.5,1.9-0.9,2.9-1.1
		c0.7-0.2,1.5-0.2,2.3-0.2c1.7,0,3.3,0.4,4.7,1.1c0.2,0.1,0.4,0.2,0.5,0.3c0.1,0,0.1,0.1,0.1,0.1c0.4,0.3,0.6,0.7,0.6,1.2
		C132.8,47.1,132.1,47.7,131.4,47.7"/>
	<path class="st0" d="M144.7,52.2c-0.1-0.1-0.2-0.1-0.3-0.2c-1.9-1.7-3.6-3.7-4.8-5.9c0,0,0,0,0-0.1h0c-1.4-2.5-2.4-5.3-2.8-8.2
		c0-0.2,0-0.4-0.1-0.5c0,0,0,0,0,0c-0.2-1-0.6-2-1.2-2.8c-0.1-0.1-0.1-0.1-0.2-0.2C130,28.3,123,24,115,22c0-0.4,0-0.8,0-1.2
		c0-4.4,1.1-8.6,3.1-12.2c0.1-0.2,0.2-0.4,0.2-0.7c0-0.8-0.6-1.4-1.4-1.4c0,0-0.1,0-0.1,0c-0.1,0-0.2,0-0.2,0
		c-10,1.7-19.1,6.2-26.4,12.7c-3.1,2.7-5.8,5.8-8.1,9.2c-1,1.4-1.9,2.9-2.7,4.4c-0.5-0.3-1-0.5-1.5-0.8c-1.6-0.8-3.3-1.5-5-2.1
		c-5.2-1.9-10.8-2.9-16.6-2.9c-1.5,0-3.1,0.1-4.5,0.2c-5.6,0.5-11,2-15.9,4.2c-15.9,7.3-27.3,22.8-28.7,41c-0.1,1.3-0.2,2.5-0.2,3.8
		v12.4c0,2.1,0.3,4.2,0.9,6.1c1.6,5.3,5.2,9.7,9.9,12.3c2.9,1.6,6.2,2.6,9.8,2.7h31.4c0.2,0,0.3,0,0.5,0c0.2,0,0.3,0,0.5,0
		c0,0,0.1,0,0.2,0c0.1,0,0.2,0,0.2,0c1.9,0.2,3.6,1.2,4.8,2.6c0.2,0.2,0.4,0.5,0.5,0.7c0.6,0.9,1,1.9,1.1,3c0,0.1,0,0.1,0,0.2
		c0,0.2,0.1,0.5,0.1,0.7c0,0.1,0,0.1,0,0.2c0,0.1,0,0.1,0,0.1v0c0,0.9,0.2,1.8,0.5,2.6c0.6,1.5,1.6,2.7,3,3.5
		c1.1,0.7,2.5,1.1,3.9,1.1c3.6,0,6.6-2.6,7.3-6c0.1-0.3,0.1-0.6,0.1-0.9c0-0.1,0-0.2,0-0.3c0-0.1,0-0.2,0-0.2v-0.2
		c0-2.5-0.4-5-1.2-7.2c-1.1-3.3-3-6.2-5.4-8.6c-2.6-2.6-5.8-4.5-9.4-5.5c-2-0.6-4.1-0.9-6.2-0.9H33c-0.1,0-0.1,0-0.2,0
		c-0.1,0-0.1,0-0.2,0c-5.8-0.1-10.6-4.7-10.9-10.4c0-0.3,0-0.5,0-0.8c0-6.2,5-11.2,11.2-11.2h99.8c2.6,0,4.8-1.7,5.5-4
		c0-0.1,0.1-0.2,0.1-0.3c0.3-1.1,1-2.1,1.9-2.8c0,0,0,0,0,0c0.1-0.1,0.1-0.1,0.2-0.2c0.1-0.1,0.2-0.1,0.3-0.2
		c2.5-1.8,4.2-4.7,4.5-7.9c0.1-0.4,0.1-0.8,0.1-1.3C145.3,54.6,145.1,53.4,144.7,52.2 M131.4,47.7c-0.2,0-0.5-0.1-0.7-0.2
		c-1-0.6-2.1-0.9-3.3-1c-0.2,0-0.4,0-0.6,0c-0.5,0-1,0-1.5,0.2c-0.8,0.2-1.6,0.4-2.3,0.8c0,0,0,0,0,0c0,0-0.1,0-0.1,0.1
		c-0.2,0.1-0.4,0.1-0.6,0.1c-0.8,0-1.4-0.6-1.4-1.4c0-0.5,0.2-0.9,0.6-1.2c0,0,0.1-0.1,0.1-0.1c0.9-0.5,1.9-0.9,2.9-1.1
		c0.7-0.2,1.5-0.2,2.3-0.2c1.7,0,3.3,0.4,4.7,1.1c0.2,0.1,0.4,0.2,0.5,0.3c0.1,0,0.1,0.1,0.1,0.1c0.4,0.3,0.6,0.7,0.6,1.2
		C132.8,47.1,132.1,47.7,131.4,47.7"/>
	<path class="st0" d="M79.4,32.7c2.7,12.9,13.9,22.6,27.3,22.6c7.9,0,15-3.4,20.1-8.8c0,0-0.1,0-0.1,0c-0.5,0-1,0-1.5,0.2
		c-0.8,0.2-1.6,0.4-2.3,0.8c0,0,0,0,0,0c0,0-0.1,0-0.1,0.1c-0.2,0.1-0.4,0.1-0.6,0.1c-0.8,0-1.4-0.6-1.4-1.4c0-0.5,0.2-0.9,0.6-1.2
		c0,0,0.1-0.1,0.1-0.1c0.9-0.5,1.9-0.9,2.9-1.1c0.7-0.2,1.5-0.2,2.3-0.2c0.8,0,1.5,0.1,2.2,0.2c2.4-3.2,4.1-7,5-11.1
		c-5.1-5.2-11.6-9-19-10.8c0-0.4,0-0.8,0-1.2c0-4.4,1.1-8.6,3.1-12.2c0.1-0.2,0.2-0.4,0.2-0.7c0-0.8-0.6-1.4-1.4-1.4
		c0,0-0.1,0-0.1,0c-0.1,0-0.2,0-0.2,0c-10,1.7-19.1,6.2-26.4,12.7c-3.1,2.7-5.8,5.8-8.1,9.2C81.1,29.9,80.2,31.2,79.4,32.7"/>
	<path class="st0" d="M137.3,59.4c-1.2-0.4-2.4-0.7-3.6-1c-1.2-0.3-2.4-0.6-3.7-0.8c-2.5-0.4-4.9-0.8-7.4-0.9
		c-2.5-0.2-5-0.1-7.5,0.1l-1.9,0.2c-0.6,0.1-1.2,0.2-1.8,0.3c-1.3,0.2-2.4,0.6-3.7,0.9c2.3-1,4.8-1.8,7.3-2.2
		c2.5-0.4,5.1-0.5,7.6-0.3c2.5,0.2,5.1,0.6,7.5,1.2C132.6,57.4,135,58.2,137.3,59.4"/>
	<path class="st0" d="M136.2,61.6c-1.3-0.2-2.5-0.4-3.8-0.4c-1.3-0.1-2.5-0.2-3.8-0.3c-2.5-0.1-5,0-7.5,0.2
		c-2.5,0.2-4.9,0.6-7.4,1.2l-1.8,0.5c-0.6,0.2-1.2,0.4-1.8,0.6c-1.2,0.3-2.3,1-3.5,1.4c2.1-1.4,4.4-2.5,6.9-3.2
		c2.4-0.8,5-1.3,7.5-1.5c2.5-0.2,5.1-0.2,7.6,0.1C131.3,60.5,133.8,60.9,136.2,61.6"/>
	<path class="st0" d="M136,64.3c-1.3,0.1-2.5,0.2-3.8,0.4c-1.2,0.1-2.5,0.3-3.7,0.6c-2.5,0.5-4.9,1-7.3,1.8
		c-2.4,0.7-4.7,1.7-6.9,2.8l-1.7,0.9c-0.5,0.3-1.1,0.7-1.6,1c-1.1,0.6-2.1,1.4-3.1,2.1c1.8-1.8,3.8-3.4,6-4.7c2.2-1.3,4.6-2.3,7-3
		c2.4-0.7,4.9-1.3,7.5-1.6C130.9,64.2,133.5,64.1,136,64.3"/>
	<path class="st0" d="M144.4,52c-0.4-0.4-0.8-0.8-1.2-1.1c-1.1,0.6-1.8,1.8-1.8,3.2c0,2,1.7,3.7,3.7,3.7c0,0,0,0,0.1,0
		c0-0.2,0.1-0.3,0.1-0.5c0.1-0.4,0.1-0.8,0.1-1.3c0-1.3-0.2-2.6-0.6-3.8C144.6,52.1,144.5,52,144.4,52"/>
	<path class="st0" d="M113.8,23.9c0,0.2,0,0.4,0,0.5c-4.5,1.8-8.6,4.5-12.1,7.7c-0.1-1-0.2-2-0.2-3c0-10.2,7.2-18.8,16.8-20.8
		C115.4,12.8,113.8,18.2,113.8,23.9"/>
	<path class="st0" d="M74.8,101.3c-0.5-0.5-1-0.9-1.5-1.4c-5.6,1.1-10.2,5-12.4,10.2c1.6,0.4,3,1.2,4,2.5c0.2,0.2,0.4,0.5,0.5,0.7
		c0.6,0.9,1,1.9,1.1,3c0,0,0,0.1,0,0.2c0,0.2,0.1,0.5,0.1,0.7c0,0.1,0,0.1,0,0.2c0,0,0,0.1,0,0.1v0c0,0.9,0.2,1.8,0.5,2.6
		c0.6,1.5,1.6,2.7,3,3.6c1.1,0.7,2.5,1.1,3.9,1.1c3.6,0,6.6-2.6,7.3-6c0.1-0.3,0.1-0.6,0.1-0.9c0-0.1,0-0.2,0-0.3c0-0.1,0-0.2,0-0.2
		v-0.2c0-2.5-0.4-5-1.2-7.2C79.1,106.7,77.3,103.7,74.8,101.3"/>
</g>
</svg>
